HIERARCHY
ROOT Hips
{
	OFFSET 0.000000 0.000000 0.000000
	CHANNELS 6 Xposition Yposition Zposition Xrotation Yrotation Zrotation
	JOINT LeftUpLeg_virtual
	{
		OFFSET 0.000000 0.000000 0.000000
		CHANNELS 3 Xrotation Yrotation Zrotation
		JOINT LeftUpLeg
		{
			OFFSET 13.026900 -6.336304 -1.092800
			CHANNELS 3 Xrotation Yrotation Zrotation
			JOINT LeftLeg
			{
				OFFSET 0.524474 -46.096886 9.782700
				CHANNELS 3 Xrotation Yrotation Zrotation
				JOINT LeftFoot
				{
					OFFSET -0.524474 -53.427422 -12.948200
					CHANNELS 3 Xrotation Yrotation Zrotation
					JOINT LeftToeBase
					{
						OFFSET 0.192200 -14.009700 16.364100
						CHANNELS 3 Xrotation Yrotation Zrotation
						JOINT LeftToe_End
						{
							OFFSET -1.784700 -0.561700 9.474800
							CHANNELS 3 Xrotation Yrotation Zrotation
							End Site
							{
								OFFSET 0 0 0
							}
						}
					}
				}
			}
		}
	}
	JOINT RightUpLeg_virtual
	{
		OFFSET 0.000000 0.000000 0.000000
		CHANNELS 3 Xrotation Yrotation Zrotation
		JOINT RightUpLeg
		{
			OFFSET -12.883000 -6.336304 -1.092800
			CHANNELS 3 Xrotation Yrotation Zrotation
			JOINT RightLeg
			{
				OFFSET -0.524587 -46.096825 9.782800
				CHANNELS 3 Xrotation Yrotation Zrotation
				JOINT RightFoot
				{
					OFFSET 0.524587 -53.427383 -12.948300
					CHANNELS 3 Xrotation Yrotation Zrotation
					JOINT RightToeBase
					{
						OFFSET -0.192200 -14.009700 16.364100
						CHANNELS 3 Xrotation Yrotation Zrotation
						JOINT RightToe_End
						{
							OFFSET 1.784700 -0.561700 9.474800
							CHANNELS 3 Xrotation Yrotation Zrotation
							End Site
							{
								OFFSET 0 0 0
							}
						}
					}
				}
			}
		}
	}
	JOINT Spine_virtual
	{
		OFFSET 0.000000 0.000000 0.000000
		CHANNELS 3 Xrotation Yrotation Zrotation
		JOINT Spine
		{
			OFFSET 0.072000 7.257294 -0.789700
			CHANNELS 3 Xrotation Yrotation Zrotation
			JOINT Spine1
			{
				OFFSET 0.000000 12.508769 -0.658067
				CHANNELS 3 Xrotation Yrotation Zrotation
				JOINT Spine1_split
				{
					OFFSET 0.000000 12.508769 -0.658067
					CHANNELS 3 Xrotation Yrotation Zrotation
					JOINT Spine2
					{
						OFFSET 0.000000 12.508769 -0.658067
						CHANNELS 3 Xrotation Yrotation Zrotation
						JOINT Neck_virtual
						{
							OFFSET 0.000000 0.000000 0.000000
							CHANNELS 3 Xrotation Yrotation Zrotation
							JOINT Neck
							{
								OFFSET 0.000000 14.033295 7.520400
								CHANNELS 3 Xrotation Yrotation Zrotation
								JOINT Head
								{
									OFFSET 0.000000 8.198502 5.703100
									CHANNELS 3 Xrotation Yrotation Zrotation
									JOINT HeadTop_End
									{
										OFFSET 0.000000 17.760803 13.332701
										CHANNELS 3 Xrotation Yrotation Zrotation
										End Site
										{
											OFFSET 0 0 0
										}
									}
								}
							}
						}
						JOINT LeftShoulder_virtual
						{
							OFFSET 0.000000 0.000000 0.000000
							CHANNELS 3 Xrotation Yrotation Zrotation
							JOINT LeftShoulder
							{
								OFFSET 6.292450 5.785301 -0.669000
								CHANNELS 3 Xrotation Yrotation Zrotation
								JOINT LeftShoulder_split
								{
									OFFSET 6.292450 5.785301 -0.669000
									CHANNELS 3 Xrotation Yrotation Zrotation
									JOINT LeftArm
									{
										OFFSET 13.907140 -6.093903 1.965100
										CHANNELS 3 Xrotation Yrotation Zrotation
										JOINT LeftForeArm
										{
											OFFSET 34.140198 0.000000 0.000000
											CHANNELS 3 Xrotation Yrotation Zrotation
											JOINT LeftHand
											{
												OFFSET 40.960209 0.000000 0.000000
												CHANNELS 3 Xrotation Yrotation Zrotation
												End Site
												{
													OFFSET 0 0 0
												}
											}
										}
									}
								}
							}
						}
						JOINT RightShoulder_virtual
						{
							OFFSET 0.000000 0.000000 0.000000
							CHANNELS 3 Xrotation Yrotation Zrotation
							JOINT RightShoulder
							{
								OFFSET -6.292450 5.785301 -0.669000
								CHANNELS 3 Xrotation Yrotation Zrotation
								JOINT RightShoulder_split
								{
									OFFSET -6.292450 5.785301 -0.669000
									CHANNELS 3 Xrotation Yrotation Zrotation
									JOINT RightArm
									{
										OFFSET -13.907140 -6.093903 1.965100
										CHANNELS 3 Xrotation Yrotation Zrotation
										JOINT RightForeArm
										{
											OFFSET -34.140198 0.000000 0.000000
											CHANNELS 3 Xrotation Yrotation Zrotation
											JOINT RightHand
											{
												OFFSET -40.960209 0.000000 0.000000
												CHANNELS 3 Xrotation Yrotation Zrotation
												End Site
												{
													OFFSET 0 0 0
												}
											}
										}
									}
								}
							}
						}
					}
				}
			}
		}
	}
}
MOTION
Frames: 5
Frame Time: 0.03333333
16.751890 122.261414 -10.384212 0.000000 0.000000 0.000000 0.143018 25.425342 9.020487 -20.355226 0.748996 -6.464032 10.889996 13.779645 -1.155946 8.333190 4.121781 -0.117282 -0.578496 -1.424554 3.842410 0.000000 0.000000 0.000000 1.337474 22.559145 8.299371 10.367559 -17.240417 -6.983585 10.725402 -4.447328 -2.634099 -13.516005 -38.803459 25.912776 -7.802663 7.196817 0.516029 0.000000 0.000000 0.000000 6.218765 28.824607 4.265188 5.977397 -3.053988 13.286404 3.325058 7.920481 4.337500 0.030951 0.333035 0.157853 0.000000 0.000000 0.000000 7.177563 8.657385 5.515093 -25.223098 5.327267 6.308182 -42.667936 -22.941043 -48.433701 0.000000 0.000000 0.000000 2.175039 8.292174 4.095971 4.027942 5.181068 23.707402 2.034619 -5.178021 1.195155 -55.290118 12.390738 -30.808661 -18.510783 -12.098773 17.186197 0.000000 0.000000 0.000000 2.402558 7.815934 6.043899 3.170126 -4.711312 -6.484401 -4.630442 0.644399 -2.380137 16.734798 -2.996601 65.229918 -5.360387 -15.323447 2.319354 0.000000 0.000000 0.000000 
17.578882 120.457573 -10.724201 0.000000 0.000000 0.000000 -0.513100 34.576200 7.497072 -25.969124 -4.228572 -6.472807 13.928773 13.018293 -1.560524 11.331938 0.865982 -1.477347 -1.864048 -0.951153 3.833497 0.000000 0.000000 0.000000 0.677601 31.147517 6.709902 15.663891 -22.966538 -4.788124 6.958115 -3.509993 -1.694961 -15.207642 -37.207971 23.866281 -8.463689 6.734823 0.434241 0.000000 0.000000 0.000000 7.279490 36.546361 2.630260 4.085204 -2.484234 11.499885 2.553014 8.732037 2.424031 -0.068835 0.294299 0.124632 0.000000 0.000000 0.000000 6.379366 9.344173 3.546554 -23.856785 0.061516 10.217679 -44.305938 -27.483098 -47.551173 0.000000 0.000000 0.000000 1.805001 9.035698 1.985829 1.956974 12.705774 24.604039 0.186861 -5.289054 0.576589 -70.125320 22.922567 -33.383622 -25.853026 -13.851565 14.296425 0.000000 0.000000 0.000000 2.264866 8.687421 3.957879 2.731147 -2.015029 -8.110119 -4.243508 0.648574 -2.201310 13.944069 -6.889955 68.066243 -5.615292 -14.936656 2.209185 0.000000 0.000000 0.000000 
18.023092 118.338387 -10.808979 0.000000 0.000000 0.000000 -0.279387 42.459099 6.027488 -31.966928 -8.709479 -6.904315 16.837719 12.011835 -1.755721 14.833906 -2.398736 -1.755059 -3.243968 -0.561130 3.758554 0.000000 0.000000 0.000000 0.670661 38.699230 5.359891 19.367029 -28.066204 -2.580345 4.235666 -2.572681 -0.651425 -16.603813 -35.285188 21.440686 -8.351268 6.140482 -0.012038 0.000000 0.000000 0.000000 8.296108 43.244496 1.231385 2.545409 -1.992545 9.705352 2.038532 9.088242 0.208856 -0.165371 0.203456 -0.007504 0.000000 0.000000 0.000000 5.570318 9.639044 1.294218 -22.011089 -3.946521 13.577208 -45.156959 -32.666841 -45.836993 0.000000 0.000000 0.000000 1.777942 9.272186 -0.307916 0.560879 17.274926 23.957616 0.506096 -5.722341 0.712087 -80.229253 30.837700 -37.815479 -31.370014 -16.228335 10.872932 0.000000 0.000000 0.000000 2.485522 9.137521 1.690710 2.529745 1.955407 -8.873032 -3.499941 0.764864 -1.830979 10.349372 -7.389370 69.647337 -6.304832 -14.715798 2.237159 0.000000 0.000000 0.000000 
18.187447 116.091644 -10.552479 0.000000 0.000000 0.000000 0.818681 48.734725 4.506780 -36.976916 -11.928647 -7.954718 18.311838 11.554786 -1.482914 17.339502 -4.671300 -0.734357 -3.886338 -0.144104 3.372590 0.000000 0.000000 0.000000 1.444961 44.909778 4.116078 21.934886 -32.468196 -0.446201 2.089825 -1.660452 0.344127 -18.182677 -33.288061 18.646258 -7.463336 5.514632 -0.835189 0.000000 0.000000 0.000000 9.318815 48.750383 -0.025556 1.323894 -1.588120 7.888973 1.866041 9.087555 -1.920520 -0.128246 0.036065 -0.103468 0.000000 0.000000 0.000000 4.885209 9.648936 -0.819848 -20.296033 -6.586491 15.853783 -45.909113 -37.974964 -43.679606 0.000000 0.000000 0.000000 1.949381 9.189775 -2.369671 -0.025674 19.036646 21.727047 1.718235 -5.736007 1.340943 -84.924810 36.420946 -43.787438 -35.371630 -18.321791 6.937825 0.000000 0.000000 0.000000 2.939124 9.259337 -0.352238 2.383785 6.636739 -8.939668 -2.332476 0.352736 -1.355317 5.919646 -5.465621 69.010899 -7.431170 -14.860029 2.416081 0.000000 0.000000 0.000000 
18.180189 113.993637 -9.970303 0.000000 0.000000 0.000000 2.652588 53.382750 2.969178 -40.382131 -13.866032 -9.478222 18.120009 11.473221 -0.641437 18.253580 -5.832710 0.907090 -3.564677 0.255541 2.839295 0.000000 0.000000 0.000000 2.859683 49.685897 2.957061 23.662586 -36.034309 1.514801 0.453233 -0.746017 1.174925 -20.124486 -31.427702 15.633844 -6.191630 4.927158 -1.948117 0.000000 0.000000 0.000000 10.751186 52.776868 -1.416088 0.375560 -1.183984 6.135592 1.972900 8.867267 -3.610888 -0.043924 0.013852 -0.148975 0.000000 0.000000 0.000000 4.466787 9.518619 -2.459757 -19.207119 -7.839827 16.587386 -46.989195 -42.806742 -41.445895 0.000000 0.000000 0.000000 2.189795 9.003241 -3.904160 0.022366 18.500288 18.267308 3.006366 -4.325930 2.590873 -84.906300 39.935979 -50.236741 -38.337859 -20.493672 2.290102 0.000000 0.000000 0.000000 3.402824 9.166931 -1.919356 2.121747 11.283532 -8.714884 -1.199634 -0.822609 -0.807721 0.299397 -2.800402 65.905834 -8.918503 -15.327004 2.766921 0.000000 0.000000 0.000000 
